<svg id="Layer_5" enable-background="new 0 0 64 64" height="512" viewBox="0 0 64 64" width="512" xmlns="http://www.w3.org/2000/svg"><g><path d="m60 11h-20c-1.654 0-3 1.346-3 3v3h-12l8-10.667v-5.333h-26v5.333l8 10.667h-11c-1.654 0-3 1.346-3 3v28c0 1.302.839 2.402 2 2.816v5.567c-.615.703-1 1.612-1 2.617 0 2.206 1.794 4 4 4s4-1.794 4-4c0-1.005-.385-1.914-1-2.618v-5.382h18v5.382c-.615.703-1 1.612-1 2.618 0 2.206 1.794 4 4 4s4-1.794 4-4c0-1.005-.385-1.914-1-2.618v-5.382h22v5.382c-.615.703-1 1.612-1 2.618 0 2.206 1.794 4 4 4s4-1.794 4-4c0-1.005-.385-1.914-1-2.618v-5.566c1.161-.414 2-1.514 2-2.816v-34c0-1.654-1.346-3-3-3zm-20 2h20c.551 0 1 .449 1 1v1h-22v-1c0-.551.449-1 1-1zm-3 16h-4.497c-1.192-3.564-4.444-6.333-8.503-7.453v-2.547h13zm-26 20v-8h18v8zm-7 0c-.551 0-1-.448-1-1v-13h8v4h-2v10zm18-30v2.139c-.655-.087-1.321-.139-2-.139-.678 0-1.345.052-2 .139v-2.139zm-2 4c.681 0 1.349.054 2 .153v5.847h-4v-5.847c.651-.099 1.319-.153 2-.153zm4 6v-5.374c2.934.943 5.286 2.891 6.362 5.374zm-7 10v-4h6v4zm-2-8v2h-2v-2zm0 4v4h-2v-4zm2-2v-2h6v2zm-1-4h-6.362c1.076-2.482 3.429-4.43 6.362-5.373zm-5 2v2h-8v-2zm14 8v-4h2v4zm0-6v-2h2v2zm4-2h8v2h-8zm-20-25.333v-2.667h22v2.667l-8.5 11.333h-5zm-5 13.333h12v2.547c-4.058 1.12-7.311 3.889-8.503 7.453h-4.497v-9c0-.551.449-1 1-1zm2 42c-1.103 0-2-.897-2-2s.897-2 2-2 2 .897 2 2-.897 2-2 2zm1-5.858c-.322-.084-.653-.142-1-.142s-.678.058-1 .142v-4.142h2zm23 5.858c-1.103 0-2-.897-2-2s.897-2 2-2 2 .897 2 2-.897 2-2 2zm1-5.858c-.322-.084-.653-.142-1-.142s-.678.058-1 .142v-4.142h2zm0-6.142v-10h-2v-4h8v14zm28 2v4.142c-.322-.084-.653-.142-1-.142s-.678.058-1 .142v-4.142zm-1 10c-1.103 0-2-.897-2-2s.897-2 2-2 2 .897 2 2-.897 2-2 2zm2-12h-21v-32h22v31c0 .552-.449 1-1 1z"/><path d="m41 33h18v-14h-18zm2-2v-6h2.382l2.494 4.988 2.659-3.988h6.465v5zm14-10v3h-7.535l-1.341 2.012-1.506-3.012h-3.618v-2z"/><path d="m48 35c-1.654 0-3 1.346-3 3s1.346 3 3 3 3-1.346 3-3-1.346-3-3-3zm0 4c-.551 0-1-.448-1-1s.449-1 1-1 1 .448 1 1-.449 1-1 1z"/><path d="m56 35c-1.654 0-3 1.346-3 3s1.346 3 3 3 3-1.346 3-3-1.346-3-3-3zm0 4c-.551 0-1-.448-1-1s.449-1 1-1 1 .448 1 1-.449 1-1 1z"/></g></svg>