<svg id="Layer_5" enable-background="new 0 0 64 64" height="512" viewBox="0 0 64 64" width="512" xmlns="http://www.w3.org/2000/svg"><g><path d="m17 23.764-.105-.211-1.789.895.105.211c.722 1.444 2.174 2.341 3.789 2.341s3.067-.897 3.789-2.342l.105-.211-1.789-.895-.105.212c-.381.762-1.147 1.236-2 1.236s-1.619-.474-2-1.236z"/><circle cx="23" cy="19" r="1"/><circle cx="15" cy="19" r="1"/><path d="m61 26.236 2.118-4.236-5.547-11.093c.824-.248 1.429-1.004 1.429-1.907v-2c0-1.103-.897-2-2-2h-28.641c-2.367-2.46-5.684-4-9.359-4-7.168 0-13 5.832-13 13v10.474c0 2.605-1.151 5.192-3.242 7.284-1.134 1.132-1.758 2.638-1.758 4.242 0 1.816.823 3.509 2.182 4.619-1.391 2.624-2.182 5.592-2.182 8.698 0 4.006 3.083 7.301 7 7.648v6.035h29v-6h24zm-5.618-15.236 5 10h-9.661l-3.334-10zm-10.102 0 3.333 10h-9.765l-1.668-10zm-10.127 0 1.666 10h-4.819v-7c0-1.034-.134-2.035-.363-3zm-3.153 13.474v-1.474h4.382l-1 2h-3.353c-.011-.175-.029-.351-.029-.526zm16.382-1.474-1 2h-6.764l-1-2zm12 0-1 2h-6.764l-1-2zm-3.382-16v2h-26.003c-.293-.701-.654-1.367-1.06-2zm-54 29c0-1.068.416-2.073 1.172-2.828 2.469-2.47 3.828-5.559 3.828-8.698v-10.474c0-6.065 4.935-11 11-11s11 4.935 11 11v10.474c0 3.14 1.359 6.229 3.828 8.698.756.755 1.172 1.76 1.172 2.828 0 1.107-.462 2.146-1.223 2.876-2.557-3.782-6.462-6.626-11.094-7.746l-.152-.304c3.125-.701 5.469-3.493 5.469-6.826v-5c0-2.757-2.243-5-5-5h-.382c-.25 0-.5-.059-.724-.171-.551-.275-.894-.83-.894-1.447v-.146c0-.998.555-1.896 1.447-2.342l-.895-1.789c-1.573.789-2.552 2.372-2.552 4.131v.146c0 1.379.767 2.619 2 3.236.5.25 1.06.382 1.618.382h.382c1.654 0 3 1.346 3 3v5c0 2.757-2.243 5-5 5h-4c-2.757 0-5-2.243-5-5v-7.528c0-1.143.636-2.171 1.658-2.683l.687-.344c.443 1.01 1.286 1.819 2.381 2.183l.957.319.633-1.896-.957-.32c-.813-.27-1.359-1.028-1.359-1.884 0-.758.421-1.439 1.098-1.778l.349-.174-.893-1.789-.351.174c-1.213.609-2.011 1.764-2.17 3.086l-1.269.634c-1.705.854-2.764 2.566-2.764 4.472v7.528c0 3.333 2.344 6.125 5.469 6.826l-.152.304c-4.629 1.12-8.532 3.961-11.089 7.74-.776-.748-1.228-1.775-1.228-2.87zm40 15h-2v-8h2zm4 0h-2v-12h2zm4 0h-2v-16h2zm-4-18v4h-4v4h-4v10h-2v-1.683c0-3.107-.791-6.075-2.183-8.7 1.374-1.135 2.183-2.817 2.183-4.617 0-1.604-.624-3.11-1.758-4.242-.245-.246-.476-.499-.695-.758h20.453v20h-2v-18zm-25 24v4h-8v-4zm1-2h-4v-4.586l1.121-1.121c.187-.187.444-.293.707-.293h.172c.552 0 1 .448 1 1v1h1c1.103 0 2 .897 2 2s-.897 2-2 2zm-1-7.825c-.313-.111-.649-.175-1-.175h-.172c-.801 0-1.555.313-2.121.879l-1.121 1.121-3.586-.002v-5.998h8zm-3.356-6.175-1.818-4h4.349l-1.818 4zm3.439-6h-6.167l-.791-1.74c.358-.103.716-.204 1.084-.283l.47-.101.939-1.876h2.764l.938 1.877.47.101c.368.079.726.18 1.084.283zm-19.083 14.317c0-3.326 1.011-6.474 2.752-9.127l.063-.084-.008-.006c1.799-2.705 4.369-4.878 7.424-6.173l3.216 7.073h-4.447v7.997l-2.999-.002c-.001-.058-.001-.116-.001-.174v-.216c0-2.16.634-4.253 1.832-6.051l-1.664-1.109c-1.418 2.128-2.168 4.604-2.168 7.16v.216c0 .424.021.849.063 1.271l.088.901 9.849.006v4.001h-8.317c-3.134 0-5.683-2.549-5.683-5.683zm7 7.683h2v4h-2zm25 4h-5v-5.901l.749-3.745c.167-.831.251-1.682.251-2.533v-.216c0-2.557-.75-5.032-2.168-7.16l-1.664 1.109c1.198 1.799 1.832 3.891 1.832 6.051v.216c0 .719-.071 1.438-.212 2.139l-.769 3.844-.016 6.196h-4.003v-4.142c1.721-.447 3-1.999 3-3.858s-1.279-3.417-3-3.864v-8.136h-2.447l3.215-7.073c6.073 2.575 10.232 8.622 10.232 15.39zm2-6v-2h20v-24h-23.814c-.347-.648-.618-1.318-.814-2h4.246l1.382-2.764 1.382 2.764h9.236l1.382-2.763 1.382 2.763h7.618v28z"/></g></svg>